<svg xmlns="http://www.w3.org/2000/svg" xmlns:xlink="http://www.w3.org/1999/xlink" viewBox="0 0 497.75 327.08"><defs><style>.cls-1{fill:url(#Degradado_sin_nombre_9);}.cls-2{fill:#1d1d1b;}</style><linearGradient id="Degradado_sin_nombre_9" y1="163.54" x2="497.75" y2="163.54" gradientUnits="userSpaceOnUse"><stop offset="0" stop-color="#f5e9d4"/><stop offset="0.11" stop-color="#f3dacd"/><stop offset="0.33" stop-color="#ecb2ba"/><stop offset="0.63" stop-color="#e2729c"/><stop offset="0.99" stop-color="#d41a73"/><stop offset="1" stop-color="#d41872"/></linearGradient></defs><g id="Capa_2" data-name="Capa 2"><g id="Capa_3" data-name="Capa 3"><path class="cls-1" d="M485.54,327.08,393.44,316c13.12-22.87,15-38.23,15.28-66.46a159.7,159.7,0,0,0-319.38-3.63c-.34,29.54,2.57,48.27,16.27,72.15l-92,9A247,247,0,0,1,34.29,120.47C103.51,3.65,257.42-35,375.23,34.77,477.48,95.37,521.09,219.08,485.54,327.08Z"/><polygon class="cls-2" points="360.84 195.12 252.81 259.74 242.34 237.58 360.84 195.12 360.84 195.12"/><circle class="cls-2" cx="248.88" cy="248.25" r="14.19"/></g></g></svg>