<?xml version="1.0" encoding="UTF-8"?><svg id="Capa_2" xmlns="http://www.w3.org/2000/svg" xmlns:xlink="http://www.w3.org/1999/xlink" viewBox="0 0 497.75 327.08"><defs><style>.cls-1{fill:#1d1d1b;}.cls-2{fill:url(#Degradado_sin_nombre_30);}</style><linearGradient id="Degradado_sin_nombre_30" x1="0" y1="163.54" x2="497.75" y2="163.54" gradientUnits="userSpaceOnUse"><stop offset="0" stop-color="#f5e9d4"/><stop offset=".18" stop-color="#eedfc4"/><stop offset=".53" stop-color="#dcc79d"/><stop offset="1" stop-color="#c1a05e"/></linearGradient></defs><g id="Capa_3"><path class="cls-2" d="M485.54,327.08l-92.1-11.08c13.12-22.87,14.96-38.23,15.28-66.46,1-88.19-69.68-160.5-157.88-161.5-88.19-1-160.5,69.68-161.5,157.87-.34,29.54,2.57,48.27,16.27,72.15l-91.96,9.02C-9.85,259.14-3.02,183.42,34.29,120.47,103.51,3.65,257.42-35.04,375.23,34.77c102.25,60.6,145.86,184.31,110.31,292.31Z"/><polygon class="cls-1" points="360.84 195.12 252.81 259.74 242.34 237.58 360.84 195.12 360.84 195.12"/><circle class="cls-1" cx="248.88" cy="248.25" r="14.19"/></g></svg>