<?xml version="1.0" encoding="UTF-8"?><svg id="Capa_2" xmlns="http://www.w3.org/2000/svg" viewBox="0 0 594.26 717.97"><defs><style>.cls-1{fill:#c1a05e;}.cls-2{fill:none;stroke:#c1a05e;stroke-miterlimit:10;stroke-width:9.29px;}</style></defs><g id="Capa_2-2"><g id="seguretat"><path class="cls-2" d="M556.17,461.04c-66.67,191.24-219.49,230.79-259.03,251.68-39.61-20.9-192.43-60.44-259.03-251.68C-.42,350.47,3.62,236.29,6.16,172.17c.76-19.07,12.02-36.22,29.41-44.8L273.11,10.24c15.12-7.46,32.96-7.46,48.08,0l237.49,117.15c17.38,8.57,28.64,25.71,29.4,44.77,2.57,64.11,6.58,178.31-31.91,288.88Z"/><path class="cls-1" d="M298.08,197.01c-30.43,0-55.1,23.98-55.1,53.54v57.8h110.23v-57.8c0-29.56-24.67-53.54-55.13-53.54ZM298.08,197.01c-30.43,0-55.1,23.98-55.1,53.54v57.8h110.23v-57.8c0-29.56-24.67-53.54-55.13-53.54ZM538.03,201.14c-.63-16.09-9.96-30.57-24.35-37.81l-196.63-98.94c-12.52-6.3-27.29-6.31-39.81-.01l-196.67,98.94c-14.4,7.24-23.73,21.73-24.35,37.83-2.1,54.16-5.45,150.6,26.46,243.98,55.14,161.52,181.67,194.93,214.46,212.58,32.74-17.65,159.26-51.06,214.47-212.58,31.86-93.39,28.55-189.84,26.42-243.99ZM416.65,465.38c0,11.33-9.19,20.52-20.52,20.52h-198c-11.34,0-20.53-9.19-20.53-20.52v-136.5c0-11.34,9.19-20.53,20.53-20.53h19.19v-65.21c0-39.68,36.18-71.86,80.76-71.86s80.79,32.18,80.79,71.86v65.21h17.26c11.33,0,20.52,9.19,20.52,20.53v136.5ZM298.08,197.01c-30.43,0-55.1,23.98-55.1,53.54v57.8h110.23v-57.8c0-29.56-24.67-53.54-55.13-53.54Z"/></g></g></svg>