<svg xmlns="http://www.w3.org/2000/svg" viewBox="0 0 594.26 717.97"><defs><style>.cls-1{fill:none;stroke:#d31872;stroke-miterlimit:10;stroke-width:9.29px;}.cls-2{fill:#d31872;}</style></defs><g id="Capa_2" data-name="Capa 2"><g id="Capa_2-2" data-name="Capa 2"><g id="seguretat"><path class="cls-1" d="M556.17,461c-66.67,191.23-219.49,230.78-259,251.68-39.61-20.9-192.43-60.45-259-251.68C-.42,350.47,3.62,236.29,6.16,172.17a52.38,52.38,0,0,1,29.41-44.8L273.11,10.24a54.44,54.44,0,0,1,48.08,0L558.68,127.39a52.38,52.38,0,0,1,29.41,44.77C590.65,236.27,594.66,350.47,556.17,461Z"/><path class="cls-2" d="M298.08,197c-30.43,0-55.1,24-55.1,53.54v57.8H353.21v-57.8C353.21,221,328.54,197,298.08,197Zm0,0c-30.43,0-55.1,24-55.1,53.54v57.8H353.21v-57.8C353.21,221,328.54,197,298.08,197Zm240,4.13a44.28,44.28,0,0,0-24.35-37.81L317.05,64.39a44.29,44.29,0,0,0-39.81,0L80.57,163.32a44.25,44.25,0,0,0-24.35,37.83c-2.1,54.16-5.45,150.6,26.46,244,55.14,161.52,181.67,194.93,214.46,212.58,32.74-17.65,159.26-51.06,214.47-212.58C543.47,351.74,540.16,255.29,538,201.14ZM416.65,465.38a20.52,20.52,0,0,1-20.52,20.52h-198a20.53,20.53,0,0,1-20.53-20.52V328.88a20.53,20.53,0,0,1,20.53-20.53h19.19V243.14c0-39.68,36.18-71.86,80.76-71.86s80.79,32.18,80.79,71.86v65.21h17.26a20.53,20.53,0,0,1,20.52,20.53ZM298.08,197c-30.43,0-55.1,24-55.1,53.54v57.8H353.21v-57.8C353.21,221,328.54,197,298.08,197Z"/></g></g></g></svg>